# xmcd CD database file
#
# Track frame offsets:
#	150
#	17510
#	46102
#
# Disc length: 997 seconds
#
# Revision: 8
# Processed by: cddbd v1.5.2PL0 Copyright (c) Steve Scherf et al.
# Submitted via: CDex 1.70beta2
#
DISCID=1503e303
DTITLE=Magic Affair - Give me all your love (MCD)
DYEAR=1994
DGENRE=Pop
TTITLE0=Give me all your love (Single cut)
TTITLE1=Give me all your love (Maxi cut)
TTITLE2=Homicidal
EXTD=YEAR: 1994
EXTT0=
EXTT1=
EXTT2=
PLAYORDER=
